<svg width="12" height="12" viewBox="0 0 12 12" fill="none" xmlns="http://www.w3.org/2000/svg">
<g clip-path="url(#clip0_28_286)">
<path d="M6.0015 0H5.9985C2.69025 0 0 2.691 0 6C0 7.3125 0.423 8.529 1.14225 9.51675L0.3945 11.7458L2.70075 11.0085C3.6495 11.637 4.78125 12 6.0015 12C9.30975 12 12 9.30825 12 6C12 2.69175 9.30975 0 6.0015 0Z" fill="#4CAF50"/>
<path d="M9.49273 8.47276C9.34798 8.88151 8.77348 9.22051 8.31523 9.31951C8.00173 9.38626 7.59223 9.43951 6.21373 8.86801C4.45048 8.13751 3.31498 6.34576 3.22648 6.22951C3.14173 6.11326 2.51398 5.28076 2.51398 4.41976C2.51398 3.55876 2.95123 3.13951 3.12748 2.95951C3.27223 2.81176 3.51148 2.74426 3.74098 2.74426C3.81523 2.74426 3.88198 2.74801 3.94198 2.75101C4.11823 2.75851 4.20673 2.76901 4.32298 3.04726C4.46773 3.39601 4.82023 4.25701 4.86223 4.34551C4.90498 4.43401 4.94773 4.55401 4.88773 4.67026C4.83148 4.79026 4.78198 4.84351 4.69348 4.94551C4.60498 5.04751 4.52098 5.12551 4.43248 5.23501C4.35148 5.33026 4.25998 5.43226 4.36198 5.60851C4.46398 5.78101 4.81648 6.35626 5.33548 6.81826C6.00523 7.41451 6.54823 7.60501 6.74248 7.68601C6.88723 7.74601 7.05973 7.73176 7.16548 7.61926C7.29973 7.47451 7.46548 7.23451 7.63423 6.99826C7.75423 6.82876 7.90573 6.80776 8.06473 6.86776C8.22673 6.92401 9.08398 7.34776 9.26023 7.43551C9.43648 7.52401 9.55273 7.56601 9.59548 7.64026C9.63748 7.71451 9.63748 8.06326 9.49273 8.47276Z" fill="#FAFAFA"/>
</g>
<defs>
<clipPath id="clip0_28_286">
<rect width="12" height="12" fill="white"/>
</clipPath>
</defs>
</svg>
