<svg width="16" height="16" viewBox="0 0 16 16" fill="none" xmlns="http://www.w3.org/2000/svg">
<path d="M4 1.33337L2 4.00004V13.3334C2 13.687 2.14048 14.0261 2.39052 14.2762C2.64057 14.5262 2.97971 14.6667 3.33333 14.6667H12.6667C13.0203 14.6667 13.3594 14.5262 13.6095 14.2762C13.8595 14.0261 14 13.687 14 13.3334V4.00004L12 1.33337H4Z" stroke="#F7F7F7" stroke-width="2" stroke-linecap="round" stroke-linejoin="round"/>
<path d="M2 4H14" stroke="#F7F7F7" stroke-width="2" stroke-linecap="round" stroke-linejoin="round"/>
<path d="M10.6666 6.66663C10.6666 7.37387 10.3857 8.05215 9.8856 8.55224C9.3855 9.05234 8.70722 9.33329 7.99998 9.33329C7.29274 9.33329 6.61446 9.05234 6.11436 8.55224C5.61426 8.05215 5.33331 7.37387 5.33331 6.66663" stroke="#F7F7F7" stroke-width="2" stroke-linecap="round" stroke-linejoin="round"/>
</svg>
