<svg width="12" height="12" viewBox="0 0 12 12" fill="none" xmlns="http://www.w3.org/2000/svg">
<path d="M12 6C12 2.68629 9.31371 0 6 0C2.68629 0 0 2.68629 0 6C0 9.31371 2.68629 12 6 12C9.31371 12 12 9.31371 12 6Z" fill="url(#paint0_linear_28_278)"/>
<path d="M10.5158 2.05263C9.64105 3.65842 8.40394 5.31473 6.85815 6.86052C5.31236 8.40631 3.65605 9.64105 2.05263 10.5158C1.9521 10.4284 1.85447 10.3374 1.75973 10.2426C1.18709 9.68911 0.730382 9.02712 0.416233 8.29526C0.102084 7.56341 -0.0632169 6.77633 -0.0700318 5.97993C-0.0768466 5.18353 0.0749612 4.39374 0.37654 3.65661C0.678119 2.91949 1.12343 2.24978 1.68652 1.68654C2.2496 1.1233 2.91918 0.677799 3.65622 0.376015C4.39326 0.0742302 5.18301 -0.0777981 5.97941 -0.0712056C6.77582 -0.064613 7.56294 0.100468 8.29488 0.414413C9.02683 0.728357 9.68894 1.18488 10.2426 1.75737C10.3374 1.8521 10.4284 1.95052 10.5158 2.05263Z" fill="white" fill-opacity="0.0627451"/>
<path d="M7.42105 2.84216H4.57894C4.11831 2.84216 3.67653 3.02515 3.35081 3.35087C3.02509 3.67659 2.8421 4.11837 2.8421 4.57901V7.42111C2.8421 7.88175 3.02509 8.32352 3.35081 8.64924C3.67653 8.97496 4.11831 9.15795 4.57894 9.15795H7.42105C7.88169 9.15795 8.32346 8.97496 8.64918 8.64924C8.9749 8.32352 9.15789 7.88175 9.15789 7.42111V4.57901C9.15789 4.11837 8.9749 3.67659 8.64918 3.35087C8.32346 3.02515 7.88169 2.84216 7.42105 2.84216ZM8.60526 7.17164C8.60526 7.55187 8.45421 7.91654 8.18534 8.18541C7.91648 8.45427 7.55181 8.60532 7.17158 8.60532H4.82842C4.44818 8.60532 4.08352 8.45427 3.81465 8.18541C3.54578 7.91654 3.39473 7.55187 3.39473 7.17164V4.82848C3.39473 4.44824 3.54578 4.08358 3.81465 3.81471C4.08352 3.54584 4.44818 3.39479 4.82842 3.39479H7.17158C7.55181 3.39479 7.91648 3.54584 8.18534 3.81471C8.45421 4.08358 8.60526 4.44824 8.60526 4.82848V7.17164Z" fill="white"/>
<path d="M7.15182 4.86006L7.13682 4.84506L7.12419 4.83242C6.82569 4.53496 6.4214 4.36802 5.99998 4.36821C5.78717 4.36966 5.57673 4.41302 5.38069 4.49582C5.18464 4.57863 5.00683 4.69924 4.85741 4.85078C4.708 5.00233 4.58991 5.18182 4.50988 5.37902C4.42986 5.57622 4.38947 5.78725 4.39103 6.00006C4.39071 6.43194 4.56095 6.84648 4.86472 7.15348C5.01351 7.30408 5.19081 7.42353 5.38627 7.50486C5.58173 7.58619 5.79144 7.62776 6.00314 7.62716C6.3207 7.6205 6.62945 7.52158 6.89175 7.34246C7.15405 7.16334 7.35856 6.91176 7.48034 6.6184C7.60212 6.32505 7.6359 6.0026 7.57757 5.69038C7.51923 5.37815 7.37131 5.08965 7.15182 4.86006ZM5.99998 7.07058C5.78764 7.07356 5.57921 7.01331 5.4012 6.8975C5.22319 6.7817 5.08365 6.61556 5.00031 6.42023C4.91698 6.2249 4.89363 6.00919 4.93323 5.80055C4.97283 5.59191 5.07358 5.39976 5.22268 5.24854C5.37178 5.09732 5.56249 4.99387 5.77055 4.95133C5.97861 4.90879 6.19463 4.9291 6.39111 5.00967C6.5876 5.09023 6.75569 5.22742 6.874 5.40377C6.99231 5.58013 7.05549 5.78769 7.05551 6.00006C7.05655 6.13967 7.03007 6.27812 6.97757 6.40749C6.92508 6.53687 6.84761 6.65463 6.74958 6.75405C6.65156 6.85347 6.5349 6.93259 6.40628 6.98691C6.27766 7.04122 6.1396 7.06965 5.99998 7.07058ZM8.08656 4.29321C8.08698 4.34387 8.0774 4.39412 8.05837 4.44107C8.03934 4.48802 8.01124 4.53076 7.97568 4.56684C7.94011 4.60292 7.89778 4.63163 7.8511 4.65133C7.80443 4.67103 7.75433 4.68133 7.70367 4.68164C7.65343 4.68161 7.6037 4.67162 7.55735 4.65224C7.51101 4.63286 7.46897 4.60448 7.43367 4.56874C7.38018 4.51448 7.3438 4.44571 7.32904 4.37096C7.31427 4.29621 7.32177 4.21877 7.3506 4.14825C7.37943 4.07772 7.42833 4.01721 7.49123 3.97421C7.55414 3.93122 7.62827 3.90763 7.70446 3.90637C7.79362 3.90636 7.87996 3.93765 7.9484 3.99479L7.9563 4.00269C7.96903 4.01305 7.98067 4.02469 7.99103 4.03742L7.99972 4.0469C8.05623 4.11652 8.08691 4.20355 8.08656 4.29321Z" fill="white"/>
<defs>
<linearGradient id="paint0_linear_28_278" x1="1.75737" y1="1.75737" x2="10.2426" y2="10.2426" gradientUnits="userSpaceOnUse">
<stop stop-color="#FAE100"/>
<stop offset="0.15" stop-color="#FCB720"/>
<stop offset="0.3" stop-color="#FF7950"/>
<stop offset="0.5" stop-color="#FF1C74"/>
<stop offset="1" stop-color="#6C1CD1"/>
</linearGradient>
</defs>
</svg>
